<mxfile host="app.diagrams.net" modified="2024-01-29T09:32:08.397Z" agent="Mozilla/5.0 (Macintosh; Intel Mac OS X 10_15_7) AppleWebKit/605.1.15 (KHTML, like Gecko) Version/17.2.1 Safari/605.1.15" etag="EMpuvvQ_YxvU9wOzHKb9" version="23.0.2" type="device">
  <diagram name="Page-1" id="0PHCMKjpyud3KAjEsfLB">
    <mxGraphModel dx="1188" dy="732" grid="1" gridSize="10" guides="1" tooltips="1" connect="1" arrows="1" fold="1" page="0" pageScale="1" pageWidth="827" pageHeight="1169" math="0" shadow="0">
      <root>
        <mxCell id="0" />
        <mxCell id="1" parent="0" />
        <mxCell id="bgvol3_OqY5FeR9LOVzj-3" value="" style="rounded=1;whiteSpace=wrap;html=1;strokeWidth=2;fillWeight=4;hachureGap=8;hachureAngle=45;fillColor=#1ba1e2;sketch=1;" vertex="1" parent="1">
          <mxGeometry x="360" y="250" width="170" height="60" as="geometry" />
        </mxCell>
        <mxCell id="bgvol3_OqY5FeR9LOVzj-2" value="" style="rounded=1;whiteSpace=wrap;html=1;strokeWidth=2;fillWeight=4;hachureGap=8;hachureAngle=45;fillColor=#1ba1e2;sketch=1;" vertex="1" parent="1">
          <mxGeometry x="341" y="131" width="120" height="60" as="geometry" />
        </mxCell>
        <mxCell id="bgvol3_OqY5FeR9LOVzj-1" value="" style="rounded=1;whiteSpace=wrap;html=1;strokeWidth=2;fillWeight=4;hachureGap=8;hachureAngle=45;fillColor=#1ba1e2;sketch=1;" vertex="1" parent="1">
          <mxGeometry x="341" y="30" width="120" height="60" as="geometry" />
        </mxCell>
        <mxCell id="qExTj2zVySwOXJWGo6M_-68" value="" style="rounded=0;whiteSpace=wrap;html=1;fillColor=#f5f5f5;fontColor=#333333;strokeColor=#666666;gradientColor=none;" parent="1" vertex="1">
          <mxGeometry x="44.25" y="420" width="750" height="110" as="geometry" />
        </mxCell>
        <mxCell id="qExTj2zVySwOXJWGo6M_-69" value="" style="rounded=0;whiteSpace=wrap;html=1;" parent="1" vertex="1">
          <mxGeometry x="65.25" y="445" width="120" height="60" as="geometry" />
        </mxCell>
        <mxCell id="qExTj2zVySwOXJWGo6M_-70" value="" style="endArrow=none;html=1;rounded=0;entryX=0.25;entryY=0;entryDx=0;entryDy=0;exitX=0.25;exitY=1;exitDx=0;exitDy=0;" parent="1" source="qExTj2zVySwOXJWGo6M_-69" target="qExTj2zVySwOXJWGo6M_-69" edge="1">
          <mxGeometry width="50" height="50" relative="1" as="geometry">
            <mxPoint x="325.25" y="475" as="sourcePoint" />
            <mxPoint x="375.25" y="425" as="targetPoint" />
          </mxGeometry>
        </mxCell>
        <mxCell id="qExTj2zVySwOXJWGo6M_-71" value="" style="endArrow=none;html=1;rounded=0;entryX=0.5;entryY=0;entryDx=0;entryDy=0;exitX=0.5;exitY=1;exitDx=0;exitDy=0;" parent="1" source="qExTj2zVySwOXJWGo6M_-69" target="qExTj2zVySwOXJWGo6M_-69" edge="1">
          <mxGeometry width="50" height="50" relative="1" as="geometry">
            <mxPoint x="105.25" y="515" as="sourcePoint" />
            <mxPoint x="105.25" y="455" as="targetPoint" />
            <Array as="points">
              <mxPoint x="125.25" y="475" />
            </Array>
          </mxGeometry>
        </mxCell>
        <mxCell id="qExTj2zVySwOXJWGo6M_-72" value="" style="endArrow=none;html=1;rounded=0;entryX=0.75;entryY=0;entryDx=0;entryDy=0;exitX=0.75;exitY=1;exitDx=0;exitDy=0;" parent="1" source="qExTj2zVySwOXJWGo6M_-69" target="qExTj2zVySwOXJWGo6M_-69" edge="1">
          <mxGeometry width="50" height="50" relative="1" as="geometry">
            <mxPoint x="325.25" y="475" as="sourcePoint" />
            <mxPoint x="375.25" y="425" as="targetPoint" />
          </mxGeometry>
        </mxCell>
        <mxCell id="qExTj2zVySwOXJWGo6M_-73" value="20" style="text;strokeColor=none;fillColor=none;align=left;verticalAlign=middle;spacingLeft=4;spacingRight=4;overflow=hidden;points=[[0,0.5],[1,0.5]];portConstraint=eastwest;rotatable=0;whiteSpace=wrap;html=1;fontSize=17;" parent="1" vertex="1">
          <mxGeometry x="65.25" y="450" width="30" height="50" as="geometry" />
        </mxCell>
        <mxCell id="qExTj2zVySwOXJWGo6M_-74" value="15" style="text;strokeColor=none;fillColor=none;align=left;verticalAlign=middle;spacingLeft=4;spacingRight=4;overflow=hidden;points=[[0,0.5],[1,0.5]];portConstraint=eastwest;rotatable=0;whiteSpace=wrap;html=1;fontSize=17;" parent="1" vertex="1">
          <mxGeometry x="95.25" y="450" width="30" height="50" as="geometry" />
        </mxCell>
        <mxCell id="qExTj2zVySwOXJWGo6M_-75" value="&lt;font style=&quot;font-size: 17px;&quot;&gt;16&lt;/font&gt;" style="text;strokeColor=none;fillColor=none;align=left;verticalAlign=middle;spacingLeft=4;spacingRight=4;overflow=hidden;points=[[0,0.5],[1,0.5]];portConstraint=eastwest;rotatable=0;whiteSpace=wrap;html=1;" parent="1" vertex="1">
          <mxGeometry x="125.25" y="450" width="30" height="50" as="geometry" />
        </mxCell>
        <mxCell id="qExTj2zVySwOXJWGo6M_-76" value="&amp;nbsp;1" style="text;strokeColor=none;fillColor=none;align=left;verticalAlign=middle;spacingLeft=4;spacingRight=4;overflow=hidden;points=[[0,0.5],[1,0.5]];portConstraint=eastwest;rotatable=0;whiteSpace=wrap;html=1;fontSize=17;" parent="1" vertex="1">
          <mxGeometry x="155.25" y="450" width="30" height="50" as="geometry" />
        </mxCell>
        <mxCell id="qExTj2zVySwOXJWGo6M_-77" value="" style="rounded=0;whiteSpace=wrap;html=1;" parent="1" vertex="1">
          <mxGeometry x="205.25" y="445" width="120" height="60" as="geometry" />
        </mxCell>
        <mxCell id="qExTj2zVySwOXJWGo6M_-78" value="" style="endArrow=none;html=1;rounded=0;entryX=0.25;entryY=0;entryDx=0;entryDy=0;exitX=0.25;exitY=1;exitDx=0;exitDy=0;" parent="1" source="qExTj2zVySwOXJWGo6M_-77" target="qExTj2zVySwOXJWGo6M_-77" edge="1">
          <mxGeometry width="50" height="50" relative="1" as="geometry">
            <mxPoint x="465.25" y="475" as="sourcePoint" />
            <mxPoint x="515.25" y="425" as="targetPoint" />
          </mxGeometry>
        </mxCell>
        <mxCell id="qExTj2zVySwOXJWGo6M_-79" value="" style="endArrow=none;html=1;rounded=0;entryX=0.5;entryY=0;entryDx=0;entryDy=0;exitX=0.5;exitY=1;exitDx=0;exitDy=0;" parent="1" source="qExTj2zVySwOXJWGo6M_-77" target="qExTj2zVySwOXJWGo6M_-77" edge="1">
          <mxGeometry width="50" height="50" relative="1" as="geometry">
            <mxPoint x="245.25" y="515" as="sourcePoint" />
            <mxPoint x="245.25" y="455" as="targetPoint" />
            <Array as="points">
              <mxPoint x="265.25" y="475" />
            </Array>
          </mxGeometry>
        </mxCell>
        <mxCell id="qExTj2zVySwOXJWGo6M_-80" value="" style="endArrow=none;html=1;rounded=0;entryX=0.75;entryY=0;entryDx=0;entryDy=0;exitX=0.75;exitY=1;exitDx=0;exitDy=0;" parent="1" source="qExTj2zVySwOXJWGo6M_-77" target="qExTj2zVySwOXJWGo6M_-77" edge="1">
          <mxGeometry width="50" height="50" relative="1" as="geometry">
            <mxPoint x="465.25" y="475" as="sourcePoint" />
            <mxPoint x="515.25" y="425" as="targetPoint" />
          </mxGeometry>
        </mxCell>
        <mxCell id="qExTj2zVySwOXJWGo6M_-81" value="&amp;nbsp;2" style="text;strokeColor=none;fillColor=none;align=left;verticalAlign=middle;spacingLeft=4;spacingRight=4;overflow=hidden;points=[[0,0.5],[1,0.5]];portConstraint=eastwest;rotatable=0;whiteSpace=wrap;html=1;fontSize=17;" parent="1" vertex="1">
          <mxGeometry x="205.25" y="450" width="30" height="50" as="geometry" />
        </mxCell>
        <mxCell id="qExTj2zVySwOXJWGo6M_-82" value="&amp;nbsp;8" style="text;strokeColor=none;fillColor=none;align=left;verticalAlign=middle;spacingLeft=4;spacingRight=4;overflow=hidden;points=[[0,0.5],[1,0.5]];portConstraint=eastwest;rotatable=0;whiteSpace=wrap;html=1;fontSize=17;" parent="1" vertex="1">
          <mxGeometry x="235.25" y="450" width="30" height="50" as="geometry" />
        </mxCell>
        <mxCell id="qExTj2zVySwOXJWGo6M_-83" value="&lt;font style=&quot;font-size: 17px;&quot;&gt;14&lt;/font&gt;" style="text;strokeColor=none;fillColor=none;align=left;verticalAlign=middle;spacingLeft=4;spacingRight=4;overflow=hidden;points=[[0,0.5],[1,0.5]];portConstraint=eastwest;rotatable=0;whiteSpace=wrap;html=1;" parent="1" vertex="1">
          <mxGeometry x="265.25" y="450" width="30" height="50" as="geometry" />
        </mxCell>
        <mxCell id="qExTj2zVySwOXJWGo6M_-84" value="11" style="text;strokeColor=#b85450;fillColor=#f8cecc;align=left;verticalAlign=middle;spacingLeft=4;spacingRight=4;overflow=hidden;points=[[0,0.5],[1,0.5]];portConstraint=eastwest;rotatable=0;whiteSpace=wrap;html=1;fontSize=17;" parent="1" vertex="1">
          <mxGeometry x="295.25" y="450" width="30" height="50" as="geometry" />
        </mxCell>
        <mxCell id="qExTj2zVySwOXJWGo6M_-85" value="" style="rounded=0;whiteSpace=wrap;html=1;" parent="1" vertex="1">
          <mxGeometry x="345.25" y="445" width="120" height="60" as="geometry" />
        </mxCell>
        <mxCell id="qExTj2zVySwOXJWGo6M_-86" value="" style="endArrow=none;html=1;rounded=0;entryX=0.25;entryY=0;entryDx=0;entryDy=0;exitX=0.25;exitY=1;exitDx=0;exitDy=0;" parent="1" source="qExTj2zVySwOXJWGo6M_-85" target="qExTj2zVySwOXJWGo6M_-85" edge="1">
          <mxGeometry width="50" height="50" relative="1" as="geometry">
            <mxPoint x="605.25" y="475" as="sourcePoint" />
            <mxPoint x="655.25" y="425" as="targetPoint" />
          </mxGeometry>
        </mxCell>
        <mxCell id="qExTj2zVySwOXJWGo6M_-87" value="" style="endArrow=none;html=1;rounded=0;entryX=0.5;entryY=0;entryDx=0;entryDy=0;exitX=0.5;exitY=1;exitDx=0;exitDy=0;" parent="1" source="qExTj2zVySwOXJWGo6M_-85" target="qExTj2zVySwOXJWGo6M_-85" edge="1">
          <mxGeometry width="50" height="50" relative="1" as="geometry">
            <mxPoint x="385.25" y="515" as="sourcePoint" />
            <mxPoint x="385.25" y="455" as="targetPoint" />
            <Array as="points">
              <mxPoint x="405.25" y="475" />
            </Array>
          </mxGeometry>
        </mxCell>
        <mxCell id="qExTj2zVySwOXJWGo6M_-88" value="" style="endArrow=none;html=1;rounded=0;entryX=0.75;entryY=0;entryDx=0;entryDy=0;exitX=0.75;exitY=1;exitDx=0;exitDy=0;" parent="1" source="qExTj2zVySwOXJWGo6M_-85" target="qExTj2zVySwOXJWGo6M_-85" edge="1">
          <mxGeometry width="50" height="50" relative="1" as="geometry">
            <mxPoint x="605.25" y="475" as="sourcePoint" />
            <mxPoint x="655.25" y="425" as="targetPoint" />
          </mxGeometry>
        </mxCell>
        <mxCell id="qExTj2zVySwOXJWGo6M_-89" value="&amp;nbsp;7" style="text;strokeColor=none;fillColor=none;align=left;verticalAlign=middle;spacingLeft=4;spacingRight=4;overflow=hidden;points=[[0,0.5],[1,0.5]];portConstraint=eastwest;rotatable=0;whiteSpace=wrap;html=1;fontSize=17;" parent="1" vertex="1">
          <mxGeometry x="345.25" y="450" width="30" height="50" as="geometry" />
        </mxCell>
        <mxCell id="qExTj2zVySwOXJWGo6M_-90" value="&amp;nbsp;5" style="text;strokeColor=none;fillColor=none;align=left;verticalAlign=middle;spacingLeft=4;spacingRight=4;overflow=hidden;points=[[0,0.5],[1,0.5]];portConstraint=eastwest;rotatable=0;whiteSpace=wrap;html=1;fontSize=17;" parent="1" vertex="1">
          <mxGeometry x="375.25" y="450" width="30" height="50" as="geometry" />
        </mxCell>
        <mxCell id="qExTj2zVySwOXJWGo6M_-91" value="&lt;font style=&quot;font-size: 17px;&quot;&gt;13&lt;/font&gt;" style="text;strokeColor=none;fillColor=none;align=left;verticalAlign=middle;spacingLeft=4;spacingRight=4;overflow=hidden;points=[[0,0.5],[1,0.5]];portConstraint=eastwest;rotatable=0;whiteSpace=wrap;html=1;" parent="1" vertex="1">
          <mxGeometry x="405.25" y="450" width="30" height="50" as="geometry" />
        </mxCell>
        <mxCell id="qExTj2zVySwOXJWGo6M_-92" value="&amp;nbsp;6" style="text;strokeColor=none;fillColor=none;align=left;verticalAlign=middle;spacingLeft=4;spacingRight=4;overflow=hidden;points=[[0,0.5],[1,0.5]];portConstraint=eastwest;rotatable=0;whiteSpace=wrap;html=1;fontSize=17;" parent="1" vertex="1">
          <mxGeometry x="435.25" y="450" width="30" height="50" as="geometry" />
        </mxCell>
        <mxCell id="qExTj2zVySwOXJWGo6M_-93" value="" style="rounded=0;whiteSpace=wrap;html=1;" parent="1" vertex="1">
          <mxGeometry x="485.25" y="445" width="120" height="60" as="geometry" />
        </mxCell>
        <mxCell id="qExTj2zVySwOXJWGo6M_-94" value="" style="endArrow=none;html=1;rounded=0;entryX=0.25;entryY=0;entryDx=0;entryDy=0;exitX=0.25;exitY=1;exitDx=0;exitDy=0;" parent="1" source="qExTj2zVySwOXJWGo6M_-93" target="qExTj2zVySwOXJWGo6M_-93" edge="1">
          <mxGeometry width="50" height="50" relative="1" as="geometry">
            <mxPoint x="745.25" y="475" as="sourcePoint" />
            <mxPoint x="795.25" y="425" as="targetPoint" />
          </mxGeometry>
        </mxCell>
        <mxCell id="qExTj2zVySwOXJWGo6M_-95" value="" style="endArrow=none;html=1;rounded=0;entryX=0.5;entryY=0;entryDx=0;entryDy=0;exitX=0.5;exitY=1;exitDx=0;exitDy=0;" parent="1" source="qExTj2zVySwOXJWGo6M_-93" target="qExTj2zVySwOXJWGo6M_-93" edge="1">
          <mxGeometry width="50" height="50" relative="1" as="geometry">
            <mxPoint x="525.25" y="515" as="sourcePoint" />
            <mxPoint x="525.25" y="455" as="targetPoint" />
            <Array as="points">
              <mxPoint x="545.25" y="475" />
            </Array>
          </mxGeometry>
        </mxCell>
        <mxCell id="qExTj2zVySwOXJWGo6M_-96" value="" style="endArrow=none;html=1;rounded=0;entryX=0.75;entryY=0;entryDx=0;entryDy=0;exitX=0.75;exitY=1;exitDx=0;exitDy=0;" parent="1" source="qExTj2zVySwOXJWGo6M_-93" target="qExTj2zVySwOXJWGo6M_-93" edge="1">
          <mxGeometry width="50" height="50" relative="1" as="geometry">
            <mxPoint x="745.25" y="475" as="sourcePoint" />
            <mxPoint x="795.25" y="425" as="targetPoint" />
          </mxGeometry>
        </mxCell>
        <mxCell id="qExTj2zVySwOXJWGo6M_-97" value="&amp;nbsp;3" style="text;strokeColor=none;fillColor=none;align=left;verticalAlign=middle;spacingLeft=4;spacingRight=4;overflow=hidden;points=[[0,0.5],[1,0.5]];portConstraint=eastwest;rotatable=0;whiteSpace=wrap;html=1;fontSize=17;" parent="1" vertex="1">
          <mxGeometry x="485.25" y="450" width="30" height="50" as="geometry" />
        </mxCell>
        <mxCell id="qExTj2zVySwOXJWGo6M_-98" value="19" style="text;strokeColor=none;fillColor=none;align=left;verticalAlign=middle;spacingLeft=4;spacingRight=4;overflow=hidden;points=[[0,0.5],[1,0.5]];portConstraint=eastwest;rotatable=0;whiteSpace=wrap;html=1;fontSize=17;" parent="1" vertex="1">
          <mxGeometry x="515.25" y="450" width="30" height="50" as="geometry" />
        </mxCell>
        <mxCell id="qExTj2zVySwOXJWGo6M_-99" value="&lt;font style=&quot;font-size: 17px;&quot;&gt;&amp;nbsp;4&lt;/font&gt;" style="text;strokeColor=none;fillColor=none;align=left;verticalAlign=middle;spacingLeft=4;spacingRight=4;overflow=hidden;points=[[0,0.5],[1,0.5]];portConstraint=eastwest;rotatable=0;whiteSpace=wrap;html=1;" parent="1" vertex="1">
          <mxGeometry x="545.25" y="450" width="30" height="50" as="geometry" />
        </mxCell>
        <mxCell id="qExTj2zVySwOXJWGo6M_-100" value="&amp;nbsp;9" style="text;strokeColor=#b85450;fillColor=#f8cecc;align=left;verticalAlign=middle;spacingLeft=4;spacingRight=4;overflow=hidden;points=[[0,0.5],[1,0.5]];portConstraint=eastwest;rotatable=0;whiteSpace=wrap;html=1;fontSize=17;" parent="1" vertex="1">
          <mxGeometry x="575.25" y="450" width="30" height="50" as="geometry" />
        </mxCell>
        <mxCell id="qExTj2zVySwOXJWGo6M_-101" value="" style="rounded=0;whiteSpace=wrap;html=1;" parent="1" vertex="1">
          <mxGeometry x="635.25" y="445" width="120" height="60" as="geometry" />
        </mxCell>
        <mxCell id="qExTj2zVySwOXJWGo6M_-102" value="" style="endArrow=none;html=1;rounded=0;entryX=0.25;entryY=0;entryDx=0;entryDy=0;exitX=0.25;exitY=1;exitDx=0;exitDy=0;" parent="1" source="qExTj2zVySwOXJWGo6M_-101" target="qExTj2zVySwOXJWGo6M_-101" edge="1">
          <mxGeometry width="50" height="50" relative="1" as="geometry">
            <mxPoint x="895.25" y="475" as="sourcePoint" />
            <mxPoint x="945.25" y="425" as="targetPoint" />
          </mxGeometry>
        </mxCell>
        <mxCell id="qExTj2zVySwOXJWGo6M_-103" value="" style="endArrow=none;html=1;rounded=0;entryX=0.5;entryY=0;entryDx=0;entryDy=0;exitX=0.5;exitY=1;exitDx=0;exitDy=0;" parent="1" source="qExTj2zVySwOXJWGo6M_-101" target="qExTj2zVySwOXJWGo6M_-101" edge="1">
          <mxGeometry width="50" height="50" relative="1" as="geometry">
            <mxPoint x="675.25" y="515" as="sourcePoint" />
            <mxPoint x="675.25" y="455" as="targetPoint" />
            <Array as="points">
              <mxPoint x="695.25" y="475" />
            </Array>
          </mxGeometry>
        </mxCell>
        <mxCell id="qExTj2zVySwOXJWGo6M_-104" value="" style="endArrow=none;html=1;rounded=0;entryX=0.75;entryY=0;entryDx=0;entryDy=0;exitX=0.75;exitY=1;exitDx=0;exitDy=0;" parent="1" source="qExTj2zVySwOXJWGo6M_-101" target="qExTj2zVySwOXJWGo6M_-101" edge="1">
          <mxGeometry width="50" height="50" relative="1" as="geometry">
            <mxPoint x="895.25" y="475" as="sourcePoint" />
            <mxPoint x="945.25" y="425" as="targetPoint" />
          </mxGeometry>
        </mxCell>
        <mxCell id="qExTj2zVySwOXJWGo6M_-105" value="10" style="text;strokeColor=#b85450;fillColor=#f8cecc;align=left;verticalAlign=middle;spacingLeft=4;spacingRight=4;overflow=hidden;points=[[0,0.5],[1,0.5]];portConstraint=eastwest;rotatable=0;whiteSpace=wrap;html=1;fontSize=17;" parent="1" vertex="1">
          <mxGeometry x="635.25" y="450" width="30" height="50" as="geometry" />
        </mxCell>
        <mxCell id="qExTj2zVySwOXJWGo6M_-106" value="12" style="text;strokeColor=#b85450;fillColor=#f8cecc;align=left;verticalAlign=middle;spacingLeft=4;spacingRight=4;overflow=hidden;points=[[0,0.5],[1,0.5]];portConstraint=eastwest;rotatable=0;whiteSpace=wrap;html=1;fontSize=17;" parent="1" vertex="1">
          <mxGeometry x="665.25" y="450" width="30" height="50" as="geometry" />
        </mxCell>
        <mxCell id="qExTj2zVySwOXJWGo6M_-107" value="&lt;font style=&quot;font-size: 17px;&quot;&gt;17&lt;/font&gt;" style="text;strokeColor=none;fillColor=none;align=left;verticalAlign=middle;spacingLeft=4;spacingRight=4;overflow=hidden;points=[[0,0.5],[1,0.5]];portConstraint=eastwest;rotatable=0;whiteSpace=wrap;html=1;" parent="1" vertex="1">
          <mxGeometry x="695.25" y="450" width="30" height="50" as="geometry" />
        </mxCell>
        <mxCell id="qExTj2zVySwOXJWGo6M_-108" value="18" style="text;strokeColor=none;fillColor=none;align=left;verticalAlign=middle;spacingLeft=4;spacingRight=4;overflow=hidden;points=[[0,0.5],[1,0.5]];portConstraint=eastwest;rotatable=0;whiteSpace=wrap;html=1;fontSize=17;" parent="1" vertex="1">
          <mxGeometry x="725.25" y="450" width="30" height="50" as="geometry" />
        </mxCell>
        <mxCell id="qExTj2zVySwOXJWGo6M_-195" value="" style="rounded=0;whiteSpace=wrap;html=1;strokeColor=default;align=center;verticalAlign=middle;fontFamily=Helvetica;fontSize=12;fontColor=default;fillColor=default;" parent="1" vertex="1">
          <mxGeometry x="361" y="40" width="80" height="40" as="geometry" />
        </mxCell>
        <mxCell id="qExTj2zVySwOXJWGo6M_-196" value="" style="endArrow=none;html=1;rounded=0;fontFamily=Helvetica;fontSize=12;fontColor=default;entryX=0.5;entryY=0;entryDx=0;entryDy=0;exitX=0.5;exitY=1;exitDx=0;exitDy=0;" parent="1" source="qExTj2zVySwOXJWGo6M_-195" target="qExTj2zVySwOXJWGo6M_-195" edge="1">
          <mxGeometry width="50" height="50" relative="1" as="geometry">
            <mxPoint x="261" y="290" as="sourcePoint" />
            <mxPoint x="311" y="240" as="targetPoint" />
          </mxGeometry>
        </mxCell>
        <mxCell id="qExTj2zVySwOXJWGo6M_-197" value="7" style="text;html=1;strokeColor=none;fillColor=none;align=center;verticalAlign=middle;whiteSpace=wrap;rounded=0;fontSize=14;fontFamily=Helvetica;fontColor=default;" parent="1" vertex="1">
          <mxGeometry x="361" y="45" width="39" height="30" as="geometry" />
        </mxCell>
        <mxCell id="qExTj2zVySwOXJWGo6M_-198" value="13" style="text;html=1;strokeColor=none;fillColor=none;align=center;verticalAlign=middle;whiteSpace=wrap;rounded=0;fontSize=14;fontFamily=Helvetica;fontColor=default;" parent="1" vertex="1">
          <mxGeometry x="402" y="45" width="39" height="30" as="geometry" />
        </mxCell>
        <mxCell id="qExTj2zVySwOXJWGo6M_-199" value="" style="rounded=0;whiteSpace=wrap;html=1;strokeColor=default;align=center;verticalAlign=middle;fontFamily=Helvetica;fontSize=12;fontColor=default;fillColor=default;" parent="1" vertex="1">
          <mxGeometry x="201.5" y="140" width="80" height="40" as="geometry" />
        </mxCell>
        <mxCell id="qExTj2zVySwOXJWGo6M_-200" value="" style="endArrow=none;html=1;rounded=0;fontFamily=Helvetica;fontSize=12;fontColor=default;entryX=0.5;entryY=0;entryDx=0;entryDy=0;exitX=0.5;exitY=1;exitDx=0;exitDy=0;" parent="1" source="qExTj2zVySwOXJWGo6M_-199" target="qExTj2zVySwOXJWGo6M_-199" edge="1">
          <mxGeometry width="50" height="50" relative="1" as="geometry">
            <mxPoint x="101.5" y="390" as="sourcePoint" />
            <mxPoint x="151.5" y="340" as="targetPoint" />
          </mxGeometry>
        </mxCell>
        <mxCell id="qExTj2zVySwOXJWGo6M_-201" value="3" style="text;html=1;strokeColor=none;fillColor=none;align=center;verticalAlign=middle;whiteSpace=wrap;rounded=0;fontSize=14;fontFamily=Helvetica;fontColor=default;" parent="1" vertex="1">
          <mxGeometry x="201.5" y="145" width="39" height="30" as="geometry" />
        </mxCell>
        <mxCell id="qExTj2zVySwOXJWGo6M_-202" value="5" style="text;html=1;strokeColor=none;fillColor=none;align=center;verticalAlign=middle;whiteSpace=wrap;rounded=0;fontSize=14;fontFamily=Helvetica;fontColor=default;" parent="1" vertex="1">
          <mxGeometry x="242.5" y="145" width="39" height="30" as="geometry" />
        </mxCell>
        <mxCell id="qExTj2zVySwOXJWGo6M_-203" value="" style="rounded=0;whiteSpace=wrap;html=1;strokeColor=default;align=center;verticalAlign=middle;fontFamily=Helvetica;fontSize=12;fontColor=default;fillColor=default;" parent="1" vertex="1">
          <mxGeometry x="360" y="140" width="80" height="40" as="geometry" />
        </mxCell>
        <mxCell id="qExTj2zVySwOXJWGo6M_-204" value="" style="endArrow=none;html=1;rounded=0;fontFamily=Helvetica;fontSize=12;fontColor=default;entryX=0.5;entryY=0;entryDx=0;entryDy=0;exitX=0.5;exitY=1;exitDx=0;exitDy=0;" parent="1" source="qExTj2zVySwOXJWGo6M_-203" target="qExTj2zVySwOXJWGo6M_-203" edge="1">
          <mxGeometry width="50" height="50" relative="1" as="geometry">
            <mxPoint x="260" y="390" as="sourcePoint" />
            <mxPoint x="310" y="340" as="targetPoint" />
          </mxGeometry>
        </mxCell>
        <mxCell id="qExTj2zVySwOXJWGo6M_-205" value="9" style="text;html=1;strokeColor=none;fillColor=none;align=center;verticalAlign=middle;whiteSpace=wrap;rounded=0;fontSize=14;fontFamily=Helvetica;fontColor=default;" parent="1" vertex="1">
          <mxGeometry x="360" y="145" width="39" height="30" as="geometry" />
        </mxCell>
        <mxCell id="qExTj2zVySwOXJWGo6M_-206" value="11" style="text;html=1;strokeColor=none;fillColor=none;align=center;verticalAlign=middle;whiteSpace=wrap;rounded=0;fontSize=14;fontFamily=Helvetica;fontColor=default;" parent="1" vertex="1">
          <mxGeometry x="398.5" y="145" width="41.5" height="30" as="geometry" />
        </mxCell>
        <mxCell id="qExTj2zVySwOXJWGo6M_-207" value="" style="rounded=0;whiteSpace=wrap;html=1;strokeColor=default;align=center;verticalAlign=middle;fontFamily=Helvetica;fontSize=12;fontColor=default;fillColor=default;" parent="1" vertex="1">
          <mxGeometry x="520.5" y="140.60000000000002" width="120" height="40" as="geometry" />
        </mxCell>
        <mxCell id="qExTj2zVySwOXJWGo6M_-208" value="" style="endArrow=none;html=1;rounded=0;fontFamily=Helvetica;fontSize=12;fontColor=default;exitX=0.336;exitY=0.997;exitDx=0;exitDy=0;exitPerimeter=0;entryX=0.334;entryY=-0.015;entryDx=0;entryDy=0;entryPerimeter=0;" parent="1" source="qExTj2zVySwOXJWGo6M_-207" target="qExTj2zVySwOXJWGo6M_-207" edge="1">
          <mxGeometry width="50" height="50" relative="1" as="geometry">
            <mxPoint x="570.5" y="140.60000000000002" as="sourcePoint" />
            <mxPoint x="559.5" y="140.60000000000002" as="targetPoint" />
            <Array as="points" />
          </mxGeometry>
        </mxCell>
        <mxCell id="qExTj2zVySwOXJWGo6M_-209" value="" style="endArrow=none;html=1;rounded=0;fontFamily=Helvetica;fontSize=12;fontColor=default;entryX=0.667;entryY=0;entryDx=0;entryDy=0;entryPerimeter=0;exitX=0.668;exitY=0.991;exitDx=0;exitDy=0;exitPerimeter=0;" parent="1" source="qExTj2zVySwOXJWGo6M_-207" target="qExTj2zVySwOXJWGo6M_-207" edge="1">
          <mxGeometry width="50" height="50" relative="1" as="geometry">
            <mxPoint x="430.5" y="350.6" as="sourcePoint" />
            <mxPoint x="480.5" y="300.6" as="targetPoint" />
          </mxGeometry>
        </mxCell>
        <mxCell id="qExTj2zVySwOXJWGo6M_-210" value="15" style="text;html=1;strokeColor=none;fillColor=none;align=center;verticalAlign=middle;whiteSpace=wrap;rounded=0;fontSize=14;fontFamily=Helvetica;fontColor=default;" parent="1" vertex="1">
          <mxGeometry x="520.5" y="145.6" width="39" height="30" as="geometry" />
        </mxCell>
        <mxCell id="qExTj2zVySwOXJWGo6M_-211" value="17" style="text;html=1;strokeColor=none;fillColor=none;align=center;verticalAlign=middle;whiteSpace=wrap;rounded=0;fontSize=14;fontFamily=Helvetica;fontColor=default;" parent="1" vertex="1">
          <mxGeometry x="561" y="145.6" width="39" height="30" as="geometry" />
        </mxCell>
        <mxCell id="qExTj2zVySwOXJWGo6M_-212" value="19" style="text;html=1;strokeColor=none;fillColor=none;align=center;verticalAlign=middle;whiteSpace=wrap;rounded=0;fontSize=14;fontFamily=Helvetica;fontColor=default;" parent="1" vertex="1">
          <mxGeometry x="601.5" y="145.6" width="39" height="30" as="geometry" />
        </mxCell>
        <mxCell id="qExTj2zVySwOXJWGo6M_-213" value="" style="rounded=0;whiteSpace=wrap;html=1;strokeColor=default;align=center;verticalAlign=middle;fontFamily=Helvetica;fontSize=12;fontColor=default;fillColor=default;" parent="1" vertex="1">
          <mxGeometry y="260" width="80" height="40" as="geometry" />
        </mxCell>
        <mxCell id="qExTj2zVySwOXJWGo6M_-214" value="" style="endArrow=none;html=1;rounded=0;fontFamily=Helvetica;fontSize=12;fontColor=default;entryX=0.5;entryY=0;entryDx=0;entryDy=0;exitX=0.5;exitY=1;exitDx=0;exitDy=0;" parent="1" source="qExTj2zVySwOXJWGo6M_-213" target="qExTj2zVySwOXJWGo6M_-213" edge="1">
          <mxGeometry width="50" height="50" relative="1" as="geometry">
            <mxPoint x="-100" y="510" as="sourcePoint" />
            <mxPoint x="-50" y="460" as="targetPoint" />
          </mxGeometry>
        </mxCell>
        <mxCell id="qExTj2zVySwOXJWGo6M_-215" value="1" style="text;html=1;strokeColor=none;fillColor=none;align=center;verticalAlign=middle;whiteSpace=wrap;rounded=0;fontSize=14;fontFamily=Helvetica;fontColor=default;" parent="1" vertex="1">
          <mxGeometry y="265" width="39" height="30" as="geometry" />
        </mxCell>
        <mxCell id="qExTj2zVySwOXJWGo6M_-216" value="2" style="text;html=1;strokeColor=none;fillColor=none;align=center;verticalAlign=middle;whiteSpace=wrap;rounded=0;fontSize=14;fontFamily=Helvetica;fontColor=default;" parent="1" vertex="1">
          <mxGeometry x="41" y="265" width="39" height="30" as="geometry" />
        </mxCell>
        <mxCell id="qExTj2zVySwOXJWGo6M_-217" value="" style="rounded=0;whiteSpace=wrap;html=1;strokeColor=default;align=center;verticalAlign=middle;fontFamily=Helvetica;fontSize=12;fontColor=default;fillColor=default;" parent="1" vertex="1">
          <mxGeometry x="89" y="260" width="80" height="40" as="geometry" />
        </mxCell>
        <mxCell id="qExTj2zVySwOXJWGo6M_-218" value="" style="endArrow=none;html=1;rounded=0;fontFamily=Helvetica;fontSize=12;fontColor=default;entryX=0.5;entryY=0;entryDx=0;entryDy=0;exitX=0.5;exitY=1;exitDx=0;exitDy=0;" parent="1" source="qExTj2zVySwOXJWGo6M_-217" target="qExTj2zVySwOXJWGo6M_-217" edge="1">
          <mxGeometry width="50" height="50" relative="1" as="geometry">
            <mxPoint x="-11" y="510" as="sourcePoint" />
            <mxPoint x="39" y="460" as="targetPoint" />
          </mxGeometry>
        </mxCell>
        <mxCell id="qExTj2zVySwOXJWGo6M_-219" value="3" style="text;html=1;strokeColor=none;fillColor=none;align=center;verticalAlign=middle;whiteSpace=wrap;rounded=0;fontSize=14;fontFamily=Helvetica;fontColor=default;" parent="1" vertex="1">
          <mxGeometry x="89" y="265" width="39" height="30" as="geometry" />
        </mxCell>
        <mxCell id="qExTj2zVySwOXJWGo6M_-220" value="4" style="text;html=1;strokeColor=none;fillColor=none;align=center;verticalAlign=middle;whiteSpace=wrap;rounded=0;fontSize=14;fontFamily=Helvetica;fontColor=default;" parent="1" vertex="1">
          <mxGeometry x="130" y="265" width="39" height="30" as="geometry" />
        </mxCell>
        <mxCell id="qExTj2zVySwOXJWGo6M_-221" value="" style="rounded=0;whiteSpace=wrap;html=1;strokeColor=default;align=center;verticalAlign=middle;fontFamily=Helvetica;fontSize=12;fontColor=default;fillColor=default;" parent="1" vertex="1">
          <mxGeometry x="180" y="260" width="80" height="40" as="geometry" />
        </mxCell>
        <mxCell id="qExTj2zVySwOXJWGo6M_-222" value="" style="endArrow=none;html=1;rounded=0;fontFamily=Helvetica;fontSize=12;fontColor=default;entryX=0.5;entryY=0;entryDx=0;entryDy=0;exitX=0.5;exitY=1;exitDx=0;exitDy=0;" parent="1" source="qExTj2zVySwOXJWGo6M_-221" target="qExTj2zVySwOXJWGo6M_-221" edge="1">
          <mxGeometry width="50" height="50" relative="1" as="geometry">
            <mxPoint x="80" y="510" as="sourcePoint" />
            <mxPoint x="130" y="460" as="targetPoint" />
          </mxGeometry>
        </mxCell>
        <mxCell id="qExTj2zVySwOXJWGo6M_-223" value="5" style="text;html=1;strokeColor=none;fillColor=none;align=center;verticalAlign=middle;whiteSpace=wrap;rounded=0;fontSize=14;fontFamily=Helvetica;fontColor=default;" parent="1" vertex="1">
          <mxGeometry x="180" y="265" width="39" height="30" as="geometry" />
        </mxCell>
        <mxCell id="qExTj2zVySwOXJWGo6M_-224" value="6" style="text;html=1;strokeColor=none;fillColor=none;align=center;verticalAlign=middle;whiteSpace=wrap;rounded=0;fontSize=14;fontFamily=Helvetica;fontColor=default;" parent="1" vertex="1">
          <mxGeometry x="221" y="265" width="39" height="30" as="geometry" />
        </mxCell>
        <mxCell id="qExTj2zVySwOXJWGo6M_-225" value="" style="rounded=0;whiteSpace=wrap;html=1;strokeColor=default;align=center;verticalAlign=middle;fontFamily=Helvetica;fontSize=12;fontColor=default;fillColor=default;" parent="1" vertex="1">
          <mxGeometry x="270" y="260" width="80" height="40" as="geometry" />
        </mxCell>
        <mxCell id="qExTj2zVySwOXJWGo6M_-226" value="" style="endArrow=none;html=1;rounded=0;fontFamily=Helvetica;fontSize=12;fontColor=default;entryX=0.5;entryY=0;entryDx=0;entryDy=0;exitX=0.5;exitY=1;exitDx=0;exitDy=0;" parent="1" source="qExTj2zVySwOXJWGo6M_-225" target="qExTj2zVySwOXJWGo6M_-225" edge="1">
          <mxGeometry width="50" height="50" relative="1" as="geometry">
            <mxPoint x="170" y="510" as="sourcePoint" />
            <mxPoint x="220" y="460" as="targetPoint" />
          </mxGeometry>
        </mxCell>
        <mxCell id="qExTj2zVySwOXJWGo6M_-227" value="7" style="text;html=1;strokeColor=none;fillColor=none;align=center;verticalAlign=middle;whiteSpace=wrap;rounded=0;fontSize=14;fontFamily=Helvetica;fontColor=default;" parent="1" vertex="1">
          <mxGeometry x="270" y="265" width="39" height="30" as="geometry" />
        </mxCell>
        <mxCell id="qExTj2zVySwOXJWGo6M_-228" value="8" style="text;html=1;strokeColor=none;fillColor=none;align=center;verticalAlign=middle;whiteSpace=wrap;rounded=0;fontSize=14;fontFamily=Helvetica;fontColor=default;" parent="1" vertex="1">
          <mxGeometry x="311" y="265" width="39" height="30" as="geometry" />
        </mxCell>
        <mxCell id="qExTj2zVySwOXJWGo6M_-229" value="" style="rounded=0;whiteSpace=wrap;html=1;strokeColor=default;align=center;verticalAlign=middle;fontFamily=Helvetica;fontSize=12;fontColor=default;fillColor=default;" parent="1" vertex="1">
          <mxGeometry x="360" y="260" width="80" height="40" as="geometry" />
        </mxCell>
        <mxCell id="qExTj2zVySwOXJWGo6M_-230" value="" style="endArrow=none;html=1;rounded=0;fontFamily=Helvetica;fontSize=12;fontColor=default;entryX=0.5;entryY=0;entryDx=0;entryDy=0;exitX=0.5;exitY=1;exitDx=0;exitDy=0;" parent="1" source="qExTj2zVySwOXJWGo6M_-229" target="qExTj2zVySwOXJWGo6M_-229" edge="1">
          <mxGeometry width="50" height="50" relative="1" as="geometry">
            <mxPoint x="260" y="510" as="sourcePoint" />
            <mxPoint x="310" y="460" as="targetPoint" />
          </mxGeometry>
        </mxCell>
        <mxCell id="qExTj2zVySwOXJWGo6M_-231" value="9" style="text;html=1;strokeColor=none;fillColor=none;align=center;verticalAlign=middle;whiteSpace=wrap;rounded=0;fontSize=14;fontFamily=Helvetica;fontColor=default;" parent="1" vertex="1">
          <mxGeometry x="360" y="265" width="39" height="30" as="geometry" />
        </mxCell>
        <mxCell id="qExTj2zVySwOXJWGo6M_-232" value="10" style="text;html=1;strokeColor=none;fillColor=none;align=center;verticalAlign=middle;whiteSpace=wrap;rounded=0;fontSize=14;fontFamily=Helvetica;fontColor=default;" parent="1" vertex="1">
          <mxGeometry x="401" y="265" width="39" height="30" as="geometry" />
        </mxCell>
        <mxCell id="qExTj2zVySwOXJWGo6M_-234" value="" style="rounded=0;whiteSpace=wrap;html=1;strokeColor=default;align=center;verticalAlign=middle;fontFamily=Helvetica;fontSize=12;fontColor=default;fillColor=default;" parent="1" vertex="1">
          <mxGeometry x="449" y="260" width="80" height="40" as="geometry" />
        </mxCell>
        <mxCell id="qExTj2zVySwOXJWGo6M_-235" value="" style="endArrow=none;html=1;rounded=0;fontFamily=Helvetica;fontSize=12;fontColor=default;entryX=0.5;entryY=0;entryDx=0;entryDy=0;exitX=0.5;exitY=1;exitDx=0;exitDy=0;" parent="1" source="qExTj2zVySwOXJWGo6M_-234" target="qExTj2zVySwOXJWGo6M_-234" edge="1">
          <mxGeometry width="50" height="50" relative="1" as="geometry">
            <mxPoint x="349" y="510" as="sourcePoint" />
            <mxPoint x="399" y="460" as="targetPoint" />
          </mxGeometry>
        </mxCell>
        <mxCell id="qExTj2zVySwOXJWGo6M_-236" value="11" style="text;html=1;strokeColor=none;fillColor=none;align=center;verticalAlign=middle;whiteSpace=wrap;rounded=0;fontSize=14;fontFamily=Helvetica;fontColor=default;" parent="1" vertex="1">
          <mxGeometry x="449" y="265" width="39" height="30" as="geometry" />
        </mxCell>
        <mxCell id="qExTj2zVySwOXJWGo6M_-237" value="12" style="text;html=1;strokeColor=none;fillColor=none;align=center;verticalAlign=middle;whiteSpace=wrap;rounded=0;fontSize=14;fontFamily=Helvetica;fontColor=default;" parent="1" vertex="1">
          <mxGeometry x="490" y="265" width="39" height="30" as="geometry" />
        </mxCell>
        <mxCell id="qExTj2zVySwOXJWGo6M_-239" value="" style="rounded=0;whiteSpace=wrap;html=1;strokeColor=default;align=center;verticalAlign=middle;fontFamily=Helvetica;fontSize=12;fontColor=default;fillColor=default;" parent="1" vertex="1">
          <mxGeometry x="539" y="260" width="80" height="40" as="geometry" />
        </mxCell>
        <mxCell id="qExTj2zVySwOXJWGo6M_-240" value="" style="endArrow=none;html=1;rounded=0;fontFamily=Helvetica;fontSize=12;fontColor=default;entryX=0.5;entryY=0;entryDx=0;entryDy=0;exitX=0.5;exitY=1;exitDx=0;exitDy=0;" parent="1" source="qExTj2zVySwOXJWGo6M_-239" target="qExTj2zVySwOXJWGo6M_-239" edge="1">
          <mxGeometry width="50" height="50" relative="1" as="geometry">
            <mxPoint x="439" y="510" as="sourcePoint" />
            <mxPoint x="489" y="460" as="targetPoint" />
          </mxGeometry>
        </mxCell>
        <mxCell id="qExTj2zVySwOXJWGo6M_-241" value="13" style="text;html=1;strokeColor=none;fillColor=none;align=center;verticalAlign=middle;whiteSpace=wrap;rounded=0;fontSize=14;fontFamily=Helvetica;fontColor=default;" parent="1" vertex="1">
          <mxGeometry x="539" y="265" width="39" height="30" as="geometry" />
        </mxCell>
        <mxCell id="qExTj2zVySwOXJWGo6M_-242" value="14" style="text;html=1;strokeColor=none;fillColor=none;align=center;verticalAlign=middle;whiteSpace=wrap;rounded=0;fontSize=14;fontFamily=Helvetica;fontColor=default;" parent="1" vertex="1">
          <mxGeometry x="580" y="265" width="39" height="30" as="geometry" />
        </mxCell>
        <mxCell id="qExTj2zVySwOXJWGo6M_-243" value="" style="rounded=0;whiteSpace=wrap;html=1;strokeColor=default;align=center;verticalAlign=middle;fontFamily=Helvetica;fontSize=12;fontColor=default;fillColor=default;" parent="1" vertex="1">
          <mxGeometry x="629" y="260" width="80" height="40" as="geometry" />
        </mxCell>
        <mxCell id="qExTj2zVySwOXJWGo6M_-244" value="" style="endArrow=none;html=1;rounded=0;fontFamily=Helvetica;fontSize=12;fontColor=default;entryX=0.5;entryY=0;entryDx=0;entryDy=0;exitX=0.5;exitY=1;exitDx=0;exitDy=0;" parent="1" source="qExTj2zVySwOXJWGo6M_-243" target="qExTj2zVySwOXJWGo6M_-243" edge="1">
          <mxGeometry width="50" height="50" relative="1" as="geometry">
            <mxPoint x="529" y="510" as="sourcePoint" />
            <mxPoint x="579" y="460" as="targetPoint" />
          </mxGeometry>
        </mxCell>
        <mxCell id="qExTj2zVySwOXJWGo6M_-245" value="15" style="text;html=1;strokeColor=none;fillColor=none;align=center;verticalAlign=middle;whiteSpace=wrap;rounded=0;fontSize=14;fontFamily=Helvetica;fontColor=default;" parent="1" vertex="1">
          <mxGeometry x="629" y="265" width="39" height="30" as="geometry" />
        </mxCell>
        <mxCell id="qExTj2zVySwOXJWGo6M_-246" value="16" style="text;html=1;strokeColor=none;fillColor=none;align=center;verticalAlign=middle;whiteSpace=wrap;rounded=0;fontSize=14;fontFamily=Helvetica;fontColor=default;" parent="1" vertex="1">
          <mxGeometry x="670" y="265" width="39" height="30" as="geometry" />
        </mxCell>
        <mxCell id="qExTj2zVySwOXJWGo6M_-247" value="" style="rounded=0;whiteSpace=wrap;html=1;strokeColor=default;align=center;verticalAlign=middle;fontFamily=Helvetica;fontSize=12;fontColor=default;fillColor=default;" parent="1" vertex="1">
          <mxGeometry x="719" y="260" width="80" height="40" as="geometry" />
        </mxCell>
        <mxCell id="qExTj2zVySwOXJWGo6M_-248" value="" style="endArrow=none;html=1;rounded=0;fontFamily=Helvetica;fontSize=12;fontColor=default;entryX=0.5;entryY=0;entryDx=0;entryDy=0;exitX=0.5;exitY=1;exitDx=0;exitDy=0;" parent="1" source="qExTj2zVySwOXJWGo6M_-247" target="qExTj2zVySwOXJWGo6M_-247" edge="1">
          <mxGeometry width="50" height="50" relative="1" as="geometry">
            <mxPoint x="619" y="510" as="sourcePoint" />
            <mxPoint x="669" y="460" as="targetPoint" />
          </mxGeometry>
        </mxCell>
        <mxCell id="qExTj2zVySwOXJWGo6M_-249" value="17" style="text;html=1;strokeColor=none;fillColor=none;align=center;verticalAlign=middle;whiteSpace=wrap;rounded=0;fontSize=14;fontFamily=Helvetica;fontColor=default;" parent="1" vertex="1">
          <mxGeometry x="719" y="265" width="39" height="30" as="geometry" />
        </mxCell>
        <mxCell id="qExTj2zVySwOXJWGo6M_-250" value="18" style="text;html=1;strokeColor=none;fillColor=none;align=center;verticalAlign=middle;whiteSpace=wrap;rounded=0;fontSize=14;fontFamily=Helvetica;fontColor=default;" parent="1" vertex="1">
          <mxGeometry x="760" y="265" width="39" height="30" as="geometry" />
        </mxCell>
        <mxCell id="qExTj2zVySwOXJWGo6M_-251" value="" style="endArrow=none;html=1;rounded=0;fontFamily=Helvetica;fontSize=12;fontColor=default;entryX=0;entryY=1;entryDx=0;entryDy=0;" parent="1" target="qExTj2zVySwOXJWGo6M_-199" edge="1">
          <mxGeometry width="50" height="50" relative="1" as="geometry">
            <mxPoint x="40" y="260" as="sourcePoint" />
            <mxPoint x="430" y="210" as="targetPoint" />
          </mxGeometry>
        </mxCell>
        <mxCell id="qExTj2zVySwOXJWGo6M_-252" value="" style="endArrow=none;html=1;rounded=0;fontFamily=Helvetica;fontSize=12;fontColor=default;entryX=0.5;entryY=1;entryDx=0;entryDy=0;exitX=0.5;exitY=0;exitDx=0;exitDy=0;" parent="1" source="qExTj2zVySwOXJWGo6M_-217" target="qExTj2zVySwOXJWGo6M_-199" edge="1">
          <mxGeometry width="50" height="50" relative="1" as="geometry">
            <mxPoint x="380" y="260" as="sourcePoint" />
            <mxPoint x="430" y="210" as="targetPoint" />
          </mxGeometry>
        </mxCell>
        <mxCell id="qExTj2zVySwOXJWGo6M_-253" value="" style="endArrow=none;html=1;rounded=0;fontFamily=Helvetica;fontSize=12;fontColor=default;entryX=1;entryY=1;entryDx=0;entryDy=0;exitX=0.5;exitY=0;exitDx=0;exitDy=0;" parent="1" source="qExTj2zVySwOXJWGo6M_-221" target="qExTj2zVySwOXJWGo6M_-199" edge="1">
          <mxGeometry width="50" height="50" relative="1" as="geometry">
            <mxPoint x="380" y="260" as="sourcePoint" />
            <mxPoint x="430" y="210" as="targetPoint" />
          </mxGeometry>
        </mxCell>
        <mxCell id="qExTj2zVySwOXJWGo6M_-254" value="" style="endArrow=none;html=1;rounded=0;fontFamily=Helvetica;fontSize=12;fontColor=default;entryX=0;entryY=1;entryDx=0;entryDy=0;exitX=0.5;exitY=0;exitDx=0;exitDy=0;" parent="1" source="qExTj2zVySwOXJWGo6M_-225" target="qExTj2zVySwOXJWGo6M_-203" edge="1">
          <mxGeometry width="50" height="50" relative="1" as="geometry">
            <mxPoint x="380" y="260" as="sourcePoint" />
            <mxPoint x="430" y="210" as="targetPoint" />
          </mxGeometry>
        </mxCell>
        <mxCell id="qExTj2zVySwOXJWGo6M_-255" value="" style="endArrow=none;html=1;rounded=0;fontFamily=Helvetica;fontSize=12;fontColor=default;" parent="1" edge="1">
          <mxGeometry width="50" height="50" relative="1" as="geometry">
            <mxPoint x="400" y="260" as="sourcePoint" />
            <mxPoint x="400" y="180" as="targetPoint" />
          </mxGeometry>
        </mxCell>
        <mxCell id="qExTj2zVySwOXJWGo6M_-256" value="" style="endArrow=none;html=1;rounded=0;fontFamily=Helvetica;fontSize=12;fontColor=default;entryX=1;entryY=1;entryDx=0;entryDy=0;" parent="1" target="qExTj2zVySwOXJWGo6M_-203" edge="1">
          <mxGeometry width="50" height="50" relative="1" as="geometry">
            <mxPoint x="490" y="260" as="sourcePoint" />
            <mxPoint x="430" y="210" as="targetPoint" />
          </mxGeometry>
        </mxCell>
        <mxCell id="qExTj2zVySwOXJWGo6M_-257" value="" style="endArrow=none;html=1;rounded=0;fontFamily=Helvetica;fontSize=12;fontColor=default;exitX=0.5;exitY=0;exitDx=0;exitDy=0;" parent="1" source="qExTj2zVySwOXJWGo6M_-239" edge="1">
          <mxGeometry width="50" height="50" relative="1" as="geometry">
            <mxPoint x="380" y="260" as="sourcePoint" />
            <mxPoint x="520" y="180" as="targetPoint" />
          </mxGeometry>
        </mxCell>
        <mxCell id="qExTj2zVySwOXJWGo6M_-258" value="" style="endArrow=none;html=1;rounded=0;fontFamily=Helvetica;fontSize=12;fontColor=default;entryX=0.338;entryY=1.01;entryDx=0;entryDy=0;entryPerimeter=0;exitX=0.5;exitY=0;exitDx=0;exitDy=0;" parent="1" source="qExTj2zVySwOXJWGo6M_-243" target="qExTj2zVySwOXJWGo6M_-207" edge="1">
          <mxGeometry width="50" height="50" relative="1" as="geometry">
            <mxPoint x="380" y="260" as="sourcePoint" />
            <mxPoint x="430" y="210" as="targetPoint" />
          </mxGeometry>
        </mxCell>
        <mxCell id="qExTj2zVySwOXJWGo6M_-259" value="" style="endArrow=none;html=1;rounded=0;fontFamily=Helvetica;fontSize=12;fontColor=default;entryX=0.654;entryY=1.035;entryDx=0;entryDy=0;entryPerimeter=0;exitX=0.5;exitY=0;exitDx=0;exitDy=0;" parent="1" source="qExTj2zVySwOXJWGo6M_-247" target="qExTj2zVySwOXJWGo6M_-207" edge="1">
          <mxGeometry width="50" height="50" relative="1" as="geometry">
            <mxPoint x="380" y="260" as="sourcePoint" />
            <mxPoint x="430" y="210" as="targetPoint" />
          </mxGeometry>
        </mxCell>
        <mxCell id="qExTj2zVySwOXJWGo6M_-260" value="" style="endArrow=none;html=1;rounded=0;fontFamily=Helvetica;fontSize=12;fontColor=default;entryX=0;entryY=1;entryDx=0;entryDy=0;" parent="1" target="qExTj2zVySwOXJWGo6M_-195" edge="1">
          <mxGeometry width="50" height="50" relative="1" as="geometry">
            <mxPoint x="240" y="140" as="sourcePoint" />
            <mxPoint x="430" y="210" as="targetPoint" />
          </mxGeometry>
        </mxCell>
        <mxCell id="qExTj2zVySwOXJWGo6M_-261" value="" style="endArrow=none;html=1;rounded=0;fontFamily=Helvetica;fontSize=12;fontColor=default;entryX=0.5;entryY=1;entryDx=0;entryDy=0;" parent="1" target="qExTj2zVySwOXJWGo6M_-195" edge="1">
          <mxGeometry width="50" height="50" relative="1" as="geometry">
            <mxPoint x="400" y="140" as="sourcePoint" />
            <mxPoint x="430" y="210" as="targetPoint" />
          </mxGeometry>
        </mxCell>
        <mxCell id="qExTj2zVySwOXJWGo6M_-262" value="" style="endArrow=none;html=1;rounded=0;fontFamily=Helvetica;fontSize=12;fontColor=default;entryX=1;entryY=1;entryDx=0;entryDy=0;" parent="1" target="qExTj2zVySwOXJWGo6M_-195" edge="1">
          <mxGeometry width="50" height="50" relative="1" as="geometry">
            <mxPoint x="580" y="140" as="sourcePoint" />
            <mxPoint x="411" y="90" as="targetPoint" />
          </mxGeometry>
        </mxCell>
        <mxCell id="qExTj2zVySwOXJWGo6M_-263" value="" style="rounded=0;whiteSpace=wrap;html=1;strokeColor=default;align=center;verticalAlign=middle;fontFamily=Helvetica;fontSize=12;fontColor=default;fillColor=default;" parent="1" vertex="1">
          <mxGeometry x="810" y="260" width="80" height="40" as="geometry" />
        </mxCell>
        <mxCell id="qExTj2zVySwOXJWGo6M_-264" value="" style="endArrow=none;html=1;rounded=0;fontFamily=Helvetica;fontSize=12;fontColor=default;entryX=0.5;entryY=0;entryDx=0;entryDy=0;exitX=0.5;exitY=1;exitDx=0;exitDy=0;" parent="1" source="qExTj2zVySwOXJWGo6M_-263" target="qExTj2zVySwOXJWGo6M_-263" edge="1">
          <mxGeometry width="50" height="50" relative="1" as="geometry">
            <mxPoint x="710" y="510" as="sourcePoint" />
            <mxPoint x="760" y="460" as="targetPoint" />
          </mxGeometry>
        </mxCell>
        <mxCell id="qExTj2zVySwOXJWGo6M_-265" value="19" style="text;html=1;strokeColor=none;fillColor=none;align=center;verticalAlign=middle;whiteSpace=wrap;rounded=0;fontSize=14;fontFamily=Helvetica;fontColor=default;" parent="1" vertex="1">
          <mxGeometry x="810" y="265" width="39" height="30" as="geometry" />
        </mxCell>
        <mxCell id="qExTj2zVySwOXJWGo6M_-266" value="20" style="text;html=1;strokeColor=none;fillColor=none;align=center;verticalAlign=middle;whiteSpace=wrap;rounded=0;fontSize=14;fontFamily=Helvetica;fontColor=default;" parent="1" vertex="1">
          <mxGeometry x="851" y="265" width="39" height="30" as="geometry" />
        </mxCell>
        <mxCell id="qExTj2zVySwOXJWGo6M_-267" value="" style="endArrow=none;html=1;rounded=0;fontFamily=Helvetica;fontSize=12;fontColor=default;entryX=1;entryY=1;entryDx=0;entryDy=0;" parent="1" target="qExTj2zVySwOXJWGo6M_-207" edge="1">
          <mxGeometry width="50" height="50" relative="1" as="geometry">
            <mxPoint x="850" y="260" as="sourcePoint" />
            <mxPoint x="420" y="270" as="targetPoint" />
          </mxGeometry>
        </mxCell>
        <mxCell id="qExTj2zVySwOXJWGo6M_-268" value="" style="endArrow=none;html=1;rounded=0;fontFamily=Helvetica;fontSize=12;fontColor=default;exitX=1;exitY=0.5;exitDx=0;exitDy=0;" parent="1" target="qExTj2zVySwOXJWGo6M_-219" edge="1">
          <mxGeometry width="50" height="50" relative="1" as="geometry">
            <mxPoint x="79.99999999999997" y="280" as="sourcePoint" />
            <mxPoint x="90" y="280" as="targetPoint" />
          </mxGeometry>
        </mxCell>
        <mxCell id="qExTj2zVySwOXJWGo6M_-270" value="" style="endArrow=none;html=1;rounded=0;fontFamily=Helvetica;fontSize=12;fontColor=default;exitX=1;exitY=0.5;exitDx=0;exitDy=0;entryX=0;entryY=0.5;entryDx=0;entryDy=0;" parent="1" target="qExTj2zVySwOXJWGo6M_-223" edge="1">
          <mxGeometry width="50" height="50" relative="1" as="geometry">
            <mxPoint x="168.99999999999997" y="279.92" as="sourcePoint" />
            <mxPoint x="178" y="279.92" as="targetPoint" />
          </mxGeometry>
        </mxCell>
        <mxCell id="qExTj2zVySwOXJWGo6M_-272" value="" style="endArrow=none;html=1;rounded=0;fontFamily=Helvetica;fontSize=12;fontColor=default;exitX=1;exitY=0.5;exitDx=0;exitDy=0;" parent="1" edge="1">
          <mxGeometry width="50" height="50" relative="1" as="geometry">
            <mxPoint x="260" y="279.92" as="sourcePoint" />
            <mxPoint x="270" y="280" as="targetPoint" />
          </mxGeometry>
        </mxCell>
        <mxCell id="qExTj2zVySwOXJWGo6M_-274" value="" style="endArrow=none;html=1;rounded=0;fontFamily=Helvetica;fontSize=12;fontColor=default;exitX=1;exitY=0.5;exitDx=0;exitDy=0;" parent="1" edge="1">
          <mxGeometry width="50" height="50" relative="1" as="geometry">
            <mxPoint x="350" y="279.92" as="sourcePoint" />
            <mxPoint x="360" y="280" as="targetPoint" />
          </mxGeometry>
        </mxCell>
        <mxCell id="qExTj2zVySwOXJWGo6M_-275" value="" style="endArrow=none;html=1;rounded=0;fontFamily=Helvetica;fontSize=12;fontColor=default;exitX=1;exitY=0.5;exitDx=0;exitDy=0;entryX=0;entryY=0.5;entryDx=0;entryDy=0;" parent="1" target="qExTj2zVySwOXJWGo6M_-236" edge="1">
          <mxGeometry width="50" height="50" relative="1" as="geometry">
            <mxPoint x="440" y="279.92" as="sourcePoint" />
            <mxPoint x="450" y="280" as="targetPoint" />
          </mxGeometry>
        </mxCell>
        <mxCell id="qExTj2zVySwOXJWGo6M_-277" value="" style="endArrow=none;html=1;rounded=0;fontFamily=Helvetica;fontSize=12;fontColor=default;exitX=1;exitY=0.5;exitDx=0;exitDy=0;entryX=0;entryY=0.5;entryDx=0;entryDy=0;" parent="1" target="qExTj2zVySwOXJWGo6M_-241" edge="1">
          <mxGeometry width="50" height="50" relative="1" as="geometry">
            <mxPoint x="529" y="279.92" as="sourcePoint" />
            <mxPoint x="538" y="280" as="targetPoint" />
          </mxGeometry>
        </mxCell>
        <mxCell id="qExTj2zVySwOXJWGo6M_-278" value="" style="endArrow=none;html=1;rounded=0;fontFamily=Helvetica;fontSize=12;fontColor=default;exitX=1;exitY=0.5;exitDx=0;exitDy=0;entryX=0;entryY=0.5;entryDx=0;entryDy=0;" parent="1" edge="1">
          <mxGeometry width="50" height="50" relative="1" as="geometry">
            <mxPoint x="619" y="279.92" as="sourcePoint" />
            <mxPoint x="629" y="280" as="targetPoint" />
          </mxGeometry>
        </mxCell>
        <mxCell id="qExTj2zVySwOXJWGo6M_-279" value="" style="endArrow=none;html=1;rounded=0;fontFamily=Helvetica;fontSize=12;fontColor=default;exitX=1;exitY=0.5;exitDx=0;exitDy=0;entryX=0;entryY=0.5;entryDx=0;entryDy=0;" parent="1" edge="1">
          <mxGeometry width="50" height="50" relative="1" as="geometry">
            <mxPoint x="709" y="279.92" as="sourcePoint" />
            <mxPoint x="719" y="280" as="targetPoint" />
          </mxGeometry>
        </mxCell>
        <mxCell id="qExTj2zVySwOXJWGo6M_-280" value="" style="endArrow=none;html=1;rounded=0;fontFamily=Helvetica;fontSize=12;fontColor=default;exitX=1;exitY=0.5;exitDx=0;exitDy=0;entryX=0;entryY=0.5;entryDx=0;entryDy=0;" parent="1" target="qExTj2zVySwOXJWGo6M_-265" edge="1">
          <mxGeometry width="50" height="50" relative="1" as="geometry">
            <mxPoint x="799" y="279.92" as="sourcePoint" />
            <mxPoint x="809" y="280" as="targetPoint" />
          </mxGeometry>
        </mxCell>
        <mxCell id="bgvol3_OqY5FeR9LOVzj-5" value="" style="endArrow=none;dashed=1;html=1;dashPattern=1 3;strokeWidth=2;rounded=0;entryX=0.25;entryY=1;entryDx=0;entryDy=0;exitX=0.862;exitY=-0.036;exitDx=0;exitDy=0;exitPerimeter=0;strokeColor=#6666FF;" edge="1" parent="1" source="bgvol3_OqY5FeR9LOVzj-27" target="qExTj2zVySwOXJWGo6M_-229">
          <mxGeometry width="50" height="50" relative="1" as="geometry">
            <mxPoint x="340" y="190" as="sourcePoint" />
            <mxPoint x="390" y="140" as="targetPoint" />
          </mxGeometry>
        </mxCell>
        <mxCell id="bgvol3_OqY5FeR9LOVzj-6" value="" style="endArrow=none;dashed=1;html=1;dashPattern=1 3;strokeWidth=2;rounded=0;entryX=0.75;entryY=1;entryDx=0;entryDy=0;exitX=0.121;exitY=0.01;exitDx=0;exitDy=0;exitPerimeter=0;strokeColor=#999900;" edge="1" parent="1" source="bgvol3_OqY5FeR9LOVzj-31" target="qExTj2zVySwOXJWGo6M_-229">
          <mxGeometry width="50" height="50" relative="1" as="geometry">
            <mxPoint x="340" y="190" as="sourcePoint" />
            <mxPoint x="390" y="140" as="targetPoint" />
          </mxGeometry>
        </mxCell>
        <mxCell id="bgvol3_OqY5FeR9LOVzj-7" value="" style="endArrow=none;dashed=1;html=1;dashPattern=1 3;strokeWidth=2;rounded=0;entryX=0.75;entryY=1;entryDx=0;entryDy=0;exitX=0.558;exitY=-0.08;exitDx=0;exitDy=0;exitPerimeter=0;strokeColor=none;" edge="1" parent="1" source="qExTj2zVySwOXJWGo6M_-106" target="qExTj2zVySwOXJWGo6M_-234">
          <mxGeometry width="50" height="50" relative="1" as="geometry">
            <mxPoint x="340" y="190" as="sourcePoint" />
            <mxPoint x="390" y="140" as="targetPoint" />
          </mxGeometry>
        </mxCell>
        <mxCell id="bgvol3_OqY5FeR9LOVzj-8" value="" style="endArrow=none;dashed=1;html=1;dashPattern=1 3;strokeWidth=2;rounded=0;entryX=0.25;entryY=1;entryDx=0;entryDy=0;exitX=0.875;exitY=0.033;exitDx=0;exitDy=0;exitPerimeter=0;strokeColor=#FF0000;" edge="1" parent="1" source="bgvol3_OqY5FeR9LOVzj-19" target="qExTj2zVySwOXJWGo6M_-234">
          <mxGeometry width="50" height="50" relative="1" as="geometry">
            <mxPoint x="340" y="190" as="sourcePoint" />
            <mxPoint x="390" y="140" as="targetPoint" />
          </mxGeometry>
        </mxCell>
        <mxCell id="bgvol3_OqY5FeR9LOVzj-9" value="" style="endArrow=none;dashed=1;html=1;dashPattern=1 3;strokeWidth=2;rounded=0;exitX=0.367;exitY=-0.013;exitDx=0;exitDy=0;exitPerimeter=0;" edge="1" parent="1" source="bgvol3_OqY5FeR9LOVzj-31">
          <mxGeometry width="50" height="50" relative="1" as="geometry">
            <mxPoint x="680" y="390" as="sourcePoint" />
            <mxPoint x="510" y="300" as="targetPoint" />
          </mxGeometry>
        </mxCell>
        <mxCell id="bgvol3_OqY5FeR9LOVzj-11" value="" style="rounded=0;whiteSpace=wrap;html=1;" vertex="1" parent="1">
          <mxGeometry x="65.25" y="350" width="115" height="30" as="geometry" />
        </mxCell>
        <mxCell id="bgvol3_OqY5FeR9LOVzj-12" value="" style="endArrow=none;html=1;rounded=0;entryX=0.25;entryY=0;entryDx=0;entryDy=0;exitX=0.25;exitY=1;exitDx=0;exitDy=0;" edge="1" source="bgvol3_OqY5FeR9LOVzj-11" target="bgvol3_OqY5FeR9LOVzj-11" parent="1">
          <mxGeometry width="50" height="50" relative="1" as="geometry">
            <mxPoint x="325.25" y="380" as="sourcePoint" />
            <mxPoint x="375.25" y="330" as="targetPoint" />
          </mxGeometry>
        </mxCell>
        <mxCell id="bgvol3_OqY5FeR9LOVzj-13" value="" style="endArrow=none;html=1;rounded=0;entryX=0.5;entryY=0;entryDx=0;entryDy=0;exitX=0.5;exitY=1;exitDx=0;exitDy=0;" edge="1" source="bgvol3_OqY5FeR9LOVzj-11" target="bgvol3_OqY5FeR9LOVzj-11" parent="1">
          <mxGeometry width="50" height="50" relative="1" as="geometry">
            <mxPoint x="120.25" y="380" as="sourcePoint" />
            <mxPoint x="105.25" y="360" as="targetPoint" />
            <Array as="points" />
          </mxGeometry>
        </mxCell>
        <mxCell id="bgvol3_OqY5FeR9LOVzj-14" value="" style="endArrow=none;html=1;rounded=0;entryX=0.75;entryY=0;entryDx=0;entryDy=0;exitX=0.75;exitY=1;exitDx=0;exitDy=0;" edge="1" source="bgvol3_OqY5FeR9LOVzj-11" target="bgvol3_OqY5FeR9LOVzj-11" parent="1">
          <mxGeometry width="50" height="50" relative="1" as="geometry">
            <mxPoint x="325.25" y="380" as="sourcePoint" />
            <mxPoint x="375.25" y="330" as="targetPoint" />
          </mxGeometry>
        </mxCell>
        <mxCell id="bgvol3_OqY5FeR9LOVzj-19" value="" style="rounded=0;whiteSpace=wrap;html=1;" vertex="1" parent="1">
          <mxGeometry x="207.75" y="350" width="115" height="30" as="geometry" />
        </mxCell>
        <mxCell id="bgvol3_OqY5FeR9LOVzj-20" value="" style="endArrow=none;html=1;rounded=0;entryX=0.25;entryY=0;entryDx=0;entryDy=0;exitX=0.25;exitY=1;exitDx=0;exitDy=0;" edge="1" parent="1" source="bgvol3_OqY5FeR9LOVzj-19" target="bgvol3_OqY5FeR9LOVzj-19">
          <mxGeometry width="50" height="50" relative="1" as="geometry">
            <mxPoint x="467.75" y="380" as="sourcePoint" />
            <mxPoint x="517.75" y="330" as="targetPoint" />
          </mxGeometry>
        </mxCell>
        <mxCell id="bgvol3_OqY5FeR9LOVzj-21" value="" style="endArrow=none;html=1;rounded=0;entryX=0.5;entryY=0;entryDx=0;entryDy=0;exitX=0.5;exitY=1;exitDx=0;exitDy=0;" edge="1" parent="1" source="bgvol3_OqY5FeR9LOVzj-19" target="bgvol3_OqY5FeR9LOVzj-19">
          <mxGeometry width="50" height="50" relative="1" as="geometry">
            <mxPoint x="262.75" y="380" as="sourcePoint" />
            <mxPoint x="247.75" y="360" as="targetPoint" />
            <Array as="points" />
          </mxGeometry>
        </mxCell>
        <mxCell id="bgvol3_OqY5FeR9LOVzj-22" value="" style="endArrow=none;html=1;rounded=0;entryX=0.75;entryY=0;entryDx=0;entryDy=0;exitX=0.75;exitY=1;exitDx=0;exitDy=0;" edge="1" parent="1" source="bgvol3_OqY5FeR9LOVzj-19" target="bgvol3_OqY5FeR9LOVzj-19">
          <mxGeometry width="50" height="50" relative="1" as="geometry">
            <mxPoint x="467.75" y="380" as="sourcePoint" />
            <mxPoint x="517.75" y="330" as="targetPoint" />
            <Array as="points">
              <mxPoint x="294.25" y="365" />
            </Array>
          </mxGeometry>
        </mxCell>
        <mxCell id="bgvol3_OqY5FeR9LOVzj-23" value="" style="rounded=0;whiteSpace=wrap;html=1;" vertex="1" parent="1">
          <mxGeometry x="347.75" y="350" width="115" height="30" as="geometry" />
        </mxCell>
        <mxCell id="bgvol3_OqY5FeR9LOVzj-24" value="" style="endArrow=none;html=1;rounded=0;entryX=0.25;entryY=0;entryDx=0;entryDy=0;exitX=0.25;exitY=1;exitDx=0;exitDy=0;" edge="1" parent="1" source="bgvol3_OqY5FeR9LOVzj-23" target="bgvol3_OqY5FeR9LOVzj-23">
          <mxGeometry width="50" height="50" relative="1" as="geometry">
            <mxPoint x="607.75" y="380" as="sourcePoint" />
            <mxPoint x="657.75" y="330" as="targetPoint" />
          </mxGeometry>
        </mxCell>
        <mxCell id="bgvol3_OqY5FeR9LOVzj-25" value="" style="endArrow=none;html=1;rounded=0;entryX=0.5;entryY=0;entryDx=0;entryDy=0;exitX=0.5;exitY=1;exitDx=0;exitDy=0;" edge="1" parent="1" source="bgvol3_OqY5FeR9LOVzj-23" target="bgvol3_OqY5FeR9LOVzj-23">
          <mxGeometry width="50" height="50" relative="1" as="geometry">
            <mxPoint x="402.75" y="380" as="sourcePoint" />
            <mxPoint x="387.75" y="360" as="targetPoint" />
            <Array as="points" />
          </mxGeometry>
        </mxCell>
        <mxCell id="bgvol3_OqY5FeR9LOVzj-26" value="" style="endArrow=none;html=1;rounded=0;entryX=0.75;entryY=0;entryDx=0;entryDy=0;exitX=0.75;exitY=1;exitDx=0;exitDy=0;" edge="1" parent="1" source="bgvol3_OqY5FeR9LOVzj-23" target="bgvol3_OqY5FeR9LOVzj-23">
          <mxGeometry width="50" height="50" relative="1" as="geometry">
            <mxPoint x="607.75" y="380" as="sourcePoint" />
            <mxPoint x="657.75" y="330" as="targetPoint" />
          </mxGeometry>
        </mxCell>
        <mxCell id="bgvol3_OqY5FeR9LOVzj-27" value="" style="rounded=0;whiteSpace=wrap;html=1;" vertex="1" parent="1">
          <mxGeometry x="485.25" y="350" width="115" height="30" as="geometry" />
        </mxCell>
        <mxCell id="bgvol3_OqY5FeR9LOVzj-28" value="" style="endArrow=none;html=1;rounded=0;entryX=0.25;entryY=0;entryDx=0;entryDy=0;exitX=0.25;exitY=1;exitDx=0;exitDy=0;" edge="1" parent="1" source="bgvol3_OqY5FeR9LOVzj-27" target="bgvol3_OqY5FeR9LOVzj-27">
          <mxGeometry width="50" height="50" relative="1" as="geometry">
            <mxPoint x="745.25" y="380" as="sourcePoint" />
            <mxPoint x="795.25" y="330" as="targetPoint" />
          </mxGeometry>
        </mxCell>
        <mxCell id="bgvol3_OqY5FeR9LOVzj-29" value="" style="endArrow=none;html=1;rounded=0;entryX=0.5;entryY=0;entryDx=0;entryDy=0;exitX=0.5;exitY=1;exitDx=0;exitDy=0;" edge="1" parent="1" source="bgvol3_OqY5FeR9LOVzj-27" target="bgvol3_OqY5FeR9LOVzj-27">
          <mxGeometry width="50" height="50" relative="1" as="geometry">
            <mxPoint x="540.25" y="380" as="sourcePoint" />
            <mxPoint x="525.25" y="360" as="targetPoint" />
            <Array as="points" />
          </mxGeometry>
        </mxCell>
        <mxCell id="bgvol3_OqY5FeR9LOVzj-30" value="" style="endArrow=none;html=1;rounded=0;entryX=0.75;entryY=0;entryDx=0;entryDy=0;exitX=0.75;exitY=1;exitDx=0;exitDy=0;" edge="1" parent="1" source="bgvol3_OqY5FeR9LOVzj-27" target="bgvol3_OqY5FeR9LOVzj-27">
          <mxGeometry width="50" height="50" relative="1" as="geometry">
            <mxPoint x="745.25" y="380" as="sourcePoint" />
            <mxPoint x="795.25" y="330" as="targetPoint" />
          </mxGeometry>
        </mxCell>
        <mxCell id="bgvol3_OqY5FeR9LOVzj-31" value="" style="rounded=0;whiteSpace=wrap;html=1;" vertex="1" parent="1">
          <mxGeometry x="635.25" y="350" width="115" height="30" as="geometry" />
        </mxCell>
        <mxCell id="bgvol3_OqY5FeR9LOVzj-32" value="" style="endArrow=none;html=1;rounded=0;entryX=0.25;entryY=0;entryDx=0;entryDy=0;exitX=0.25;exitY=1;exitDx=0;exitDy=0;" edge="1" parent="1" source="bgvol3_OqY5FeR9LOVzj-31" target="bgvol3_OqY5FeR9LOVzj-31">
          <mxGeometry width="50" height="50" relative="1" as="geometry">
            <mxPoint x="895.25" y="380" as="sourcePoint" />
            <mxPoint x="945.25" y="330" as="targetPoint" />
          </mxGeometry>
        </mxCell>
        <mxCell id="bgvol3_OqY5FeR9LOVzj-33" value="" style="endArrow=none;html=1;rounded=0;entryX=0.5;entryY=0;entryDx=0;entryDy=0;exitX=0.5;exitY=1;exitDx=0;exitDy=0;" edge="1" parent="1" source="bgvol3_OqY5FeR9LOVzj-31" target="bgvol3_OqY5FeR9LOVzj-31">
          <mxGeometry width="50" height="50" relative="1" as="geometry">
            <mxPoint x="690.25" y="380" as="sourcePoint" />
            <mxPoint x="675.25" y="360" as="targetPoint" />
            <Array as="points" />
          </mxGeometry>
        </mxCell>
        <mxCell id="bgvol3_OqY5FeR9LOVzj-34" value="" style="endArrow=none;html=1;rounded=0;entryX=0.75;entryY=0;entryDx=0;entryDy=0;exitX=0.75;exitY=1;exitDx=0;exitDy=0;" edge="1" parent="1" source="bgvol3_OqY5FeR9LOVzj-31" target="bgvol3_OqY5FeR9LOVzj-31">
          <mxGeometry width="50" height="50" relative="1" as="geometry">
            <mxPoint x="895.25" y="380" as="sourcePoint" />
            <mxPoint x="945.25" y="330" as="targetPoint" />
          </mxGeometry>
        </mxCell>
        <mxCell id="bgvol3_OqY5FeR9LOVzj-37" value="" style="text;html=1;strokeColor=#b85450;fillColor=#f8cecc;align=center;verticalAlign=middle;whiteSpace=wrap;rounded=0;" vertex="1" parent="1">
          <mxGeometry x="293.25" y="350" width="29.5" height="30" as="geometry" />
        </mxCell>
        <mxCell id="bgvol3_OqY5FeR9LOVzj-38" value="" style="text;html=1;strokeColor=#b85450;fillColor=#f8cecc;align=center;verticalAlign=middle;whiteSpace=wrap;rounded=0;" vertex="1" parent="1">
          <mxGeometry x="570.5" y="350" width="29.5" height="30" as="geometry" />
        </mxCell>
        <mxCell id="bgvol3_OqY5FeR9LOVzj-39" value="" style="text;html=1;strokeColor=#b85450;fillColor=#f8cecc;align=center;verticalAlign=middle;whiteSpace=wrap;rounded=0;" vertex="1" parent="1">
          <mxGeometry x="635.5" y="350" width="29.5" height="30" as="geometry" />
        </mxCell>
        <mxCell id="bgvol3_OqY5FeR9LOVzj-40" value="" style="text;html=1;strokeColor=#b85450;fillColor=#f8cecc;align=center;verticalAlign=middle;whiteSpace=wrap;rounded=0;" vertex="1" parent="1">
          <mxGeometry x="665" y="350" width="29.5" height="30" as="geometry" />
        </mxCell>
        <mxCell id="bgvol3_OqY5FeR9LOVzj-41" value="" style="endArrow=none;html=1;rounded=0;exitX=0.488;exitY=-0.09;exitDx=0;exitDy=0;exitPerimeter=0;" edge="1" parent="1" source="qExTj2zVySwOXJWGo6M_-84">
          <mxGeometry width="50" height="50" relative="1" as="geometry">
            <mxPoint x="490" y="450" as="sourcePoint" />
            <mxPoint x="310" y="380" as="targetPoint" />
          </mxGeometry>
        </mxCell>
        <mxCell id="bgvol3_OqY5FeR9LOVzj-42" value="" style="endArrow=none;html=1;rounded=0;exitX=0.488;exitY=-0.09;exitDx=0;exitDy=0;exitPerimeter=0;" edge="1" parent="1">
          <mxGeometry width="50" height="50" relative="1" as="geometry">
            <mxPoint x="589.9100000000001" y="445" as="sourcePoint" />
            <mxPoint x="589.9100000000001" y="380" as="targetPoint" />
          </mxGeometry>
        </mxCell>
        <mxCell id="bgvol3_OqY5FeR9LOVzj-43" value="" style="endArrow=none;html=1;rounded=0;exitX=0.488;exitY=-0.09;exitDx=0;exitDy=0;exitPerimeter=0;" edge="1" parent="1">
          <mxGeometry width="50" height="50" relative="1" as="geometry">
            <mxPoint x="649.9100000000001" y="445" as="sourcePoint" />
            <mxPoint x="649.9100000000001" y="380" as="targetPoint" />
          </mxGeometry>
        </mxCell>
        <mxCell id="bgvol3_OqY5FeR9LOVzj-44" value="" style="endArrow=none;html=1;rounded=0;exitX=0.488;exitY=-0.09;exitDx=0;exitDy=0;exitPerimeter=0;" edge="1" parent="1">
          <mxGeometry width="50" height="50" relative="1" as="geometry">
            <mxPoint x="679.9100000000001" y="445" as="sourcePoint" />
            <mxPoint x="679.9100000000001" y="380" as="targetPoint" />
          </mxGeometry>
        </mxCell>
      </root>
    </mxGraphModel>
  </diagram>
</mxfile>
